# xmcd
#
# Track frame offsets: 
#        150
#        18892
#        44860
#        66000
#        85337
#        105890
#        126937
#        147110
#        166950
#        182830
#        201772
#        221732
#        245962
#        263392
#
# Disc length: 3863 seconds
#
# Revision: 0
# Processed by: cddbd v1.4PL0 Copyright (c) Steve Scherf et al.
# Submitted via: ExactAudioCopy v0.95a3
#
DISCID=c80f150e
DTITLE=Bonnie Tyler - Bonnie Tyler
DYEAR=1998
DGENRE=Rock Blues
TTITLE0=Have You Ever Seen The Rain?
TTITLE1=To Love Somebody
TTITLE2=Faster Than The Speed Of Night
TTITLE3=The Best
TTITLE4=Lovers Again
TTITLE5=It's A Jungle
TTITLE6=Total Eclipse Of The Heart
TTITLE7=Holding Out For A Hero
TTITLE8=Getting So Excited
TTITLE9=Turtle Blues
TTITLE10=Hide Your Heart
TTITLE11=Before The Night Is Through
TTITLE12=Tears
TTITLE13=Band Of Gold
EXTD=
EXTT0=
EXTT1=
EXTT2=
EXTT3=
EXTT4=
EXTT5=
EXTT6=
EXTT7=
EXTT8=
EXTT9=
EXTT10=
EXTT11=
EXTT12=
EXTT13=
PLAYORDER=
